<svg id="Filled" height="512" viewBox="0 0 512 512" width="512" xmlns="http://www.w3.org/2000/svg"><path d="m40 72h448v416h-448z" fill="#c3c6c7"/><path d="m24 56h432v400h-432z" fill="#e9eef2"/><path d="m24 56h432v96h-432z" fill="#eb423f"/><path d="m152 280h176a32 32 0 0 1 32 32v96a0 0 0 0 1 0 0h-240a0 0 0 0 1 0 0v-96a32 32 0 0 1 32-32z" fill="#f7cc38"/><path d="m360 335.46c0 13.455-11.011 24.791-24.464 24.536a24 24 0 0 1 -23.536-23.996 24 24 0 0 1 -48 0 24 24 0 0 1 -48 0 24 24 0 0 1 -48 0 24 24 0 0 1 -23.536 24c-13.453.251-24.464-11.085-24.464-24.54v-23.46a32 32 0 0 1 32-32h176a32 32 0 0 1 32 32z" fill="#ff6aa0"/><path d="m488 64h-24v-8a8 8 0 0 0 -8-8h-56v-8a24 24 0 0 0 -48 0v8h-16v-8a24 24 0 0 0 -48 0v8h-96v-8a24 24 0 0 0 -48 0v8h-16v-8a24 24 0 0 0 -48 0v8h-56a8 8 0 0 0 -8 8v400a8 8 0 0 0 8 8h8v24a8 8 0 0 0 8 8h448a8 8 0 0 0 8-8v-416a8 8 0 0 0 -8-8zm-456 384v-288h416v288zm336-408a8 8 0 0 1 16 0v8h-16zm-64 0a8 8 0 0 1 16 0v8h-16zm-144 0a8 8 0 0 1 16 0v8h-16zm-64 0a8 8 0 0 1 16 0v8h-16zm-16 24v8a24.028 24.028 0 0 0 24 24 8 8 0 0 0 0-16 8.009 8.009 0 0 1 -8-8v-8h48v8a24.028 24.028 0 0 0 24 24 8 8 0 0 0 0-16 8.009 8.009 0 0 1 -8-8v-8h128v8a24.028 24.028 0 0 0 24 24 8 8 0 0 0 0-16 8.009 8.009 0 0 1 -8-8v-8h48v8a24.028 24.028 0 0 0 24 24 8 8 0 0 0 0-16 8.009 8.009 0 0 1 -8-8v-8h80v80h-416v-80zm400 416h-432v-16h408a8 8 0 0 0 8-8v-376h16z"/><circle cx="240" cy="200" r="8"/><circle cx="192" cy="208" r="8"/><circle cx="288" cy="208" r="8"/><path d="m96 416h288a8 8 0 0 0 0-16h-16v-80a40.045 40.045 0 0 0 -40-40h-32v-40a8 8 0 0 0 -16 0v40h-32v-48a8 8 0 0 0 -16 0v48h-32v-40a8 8 0 0 0 -16 0v40h-32a40.045 40.045 0 0 0 -40 40v80h-16a8 8 0 0 0 0 16zm32-96a24.027 24.027 0 0 1 24-24h176a24.027 24.027 0 0 1 24 24v16a16 16 0 0 1 -32 0 8 8 0 0 0 -16 0 16 16 0 0 1 -32 0 8 8 0 0 0 -16 0 16 16 0 0 1 -32 0 8 8 0 0 0 -16 0 16 16 0 0 1 -32 0 8 8 0 0 0 -16 0 16 16 0 0 1 -32 0zm0 43.695a31.932 31.932 0 0 0 40-6.55 31.959 31.959 0 0 0 48 0 31.959 31.959 0 0 0 48 0 31.959 31.959 0 0 0 48 0 31.932 31.932 0 0 0 40 6.55v36.305h-224z"/></svg>