<svg height="512" viewBox="0 0 64 64" width="512" xmlns="http://www.w3.org/2000/svg"><g id="Flat"><g id="Color_copy" data-name="Color copy"><path d="m47 61h-44v-58h34l10 10z" fill="#48cae4"/><path d="m47 13-12 2 2-12z" fill="#00b4d8"/><path d="m47 35v26h-44v-58h12v20a12 12 0 0 0 12 12z" fill="#00b4d8"/><path d="m47 13h-10v-10z" fill="#ade8f4"/><path d="m42 32h-26a1 1 0 0 1 0-2h26a1 1 0 0 1 0 2z" fill="#ffea00"/><path d="m42 36h-19a1 1 0 0 1 0-2h19a1 1 0 0 1 0 2z" fill="#ffea00"/><path d="m37 40h-7a1 1 0 0 1 0-2h7a1 1 0 0 1 0 2z" fill="#ffd000"/><path d="m43 28h-6a1 1 0 0 1 0-2h6a1 1 0 0 1 0 2z" fill="#ffea00"/><path d="m43 24h-4a1 1 0 0 1 0-2h4a1 1 0 0 1 0 2z" fill="#ffea00"/><g fill="#ffd000"><path d="m12 32h-4a1 1 0 0 1 0-2h4a1 1 0 0 1 0 2z"/><path d="m12 36h-4a1 1 0 0 1 0-2h4a1 1 0 0 1 0 2z"/><path d="m19.06 32h-3.06a1 1 0 0 1 0-2h1.25a12.259 12.259 0 0 0 1.81 2z"/><path d="m43 35a1 1 0 0 1 -1 1h-19a1 1 0 0 1 -.49-1.87 11.969 11.969 0 0 0 4.49.87z"/></g><path d="m13.708 38.563a.988.988 0 0 0 1.665-.563.988.988 0 0 1 1.884-.248.987.987 0 0 0 1.754.115.987.987 0 0 1 1.835.491.988.988 0 0 0 1.577.777.988.988 0 0 1 1.508 1.157.988.988 0 0 0 1.159 1.322.987.987 0 0 1 .95 1.645.988.988 0 0 0 .565 1.665.988.988 0 0 1 .248 1.884.987.987 0 0 0 -.115 1.754.987.987 0 0 1 -.491 1.835.988.988 0 0 0 -.777 1.577.988.988 0 0 1 -1.157 1.507.988.988 0 0 0 -1.323 1.159.988.988 0 0 1 -1.645.95.988.988 0 0 0 -1.665.566.988.988 0 0 1 -1.88.244.987.987 0 0 0 -1.754-.115.988.988 0 0 1 -1.835-.492.988.988 0 0 0 -1.577-.778.987.987 0 0 1 -1.507-1.156.987.987 0 0 0 -1.159-1.321.988.988 0 0 1 -.95-1.646.988.988 0 0 0 -.566-1.665.988.988 0 0 1 -.252-1.881.987.987 0 0 0 .115-1.754.988.988 0 0 1 .492-1.835.988.988 0 0 0 .778-1.577.988.988 0 0 1 1.156-1.508.987.987 0 0 0 1.321-1.159.988.988 0 0 1 1.646-.95z" fill="#c62828"/><path d="m18.467 54.258a3.009 3.009 0 0 0 -2.822-.183 3 3 0 0 0 -2.43-1.253h-.1a3 3 0 0 0 -1.863-2.122 3 3 0 0 0 -.908-2.677 3 3 0 0 0 .185-2.82 3.012 3.012 0 0 0 1.25-2.537 3.019 3.019 0 0 0 1.684-1.077 2.978 2.978 0 0 0 .442-.785 2.9 2.9 0 0 0 .486.04 2.98 2.98 0 0 0 2.194-.948 3.005 3.005 0 0 0 2.824.183 3 3 0 0 0 2.429 1.253h.1a3 3 0 0 0 1.862 2.123 3 3 0 0 0 .908 2.676 3.012 3.012 0 0 0 -.185 2.821 3.008 3.008 0 0 0 -1.25 2.536 3.022 3.022 0 0 0 -1.684 1.077 2.991 2.991 0 0 0 -.441.785 3.016 3.016 0 0 0 -.486-.039 2.981 2.981 0 0 0 -2.195.947z" fill="#e53935"/><circle cx="17.526" cy="47.077" fill="#ef5350" r="5"/><path d="m6.526 45.077h22v4h-22z" fill="#ff7373" transform="matrix(.866 -.5 .5 .866 -21.19 15.07)"/><rect fill="#ef5350" height="1.999" rx="1" transform="matrix(-.866 .5 -.5 -.866 56.243 79.083)" width="20" x="7.526" y="46.077"/><path d="m35.5 46.938h16a4 4 0 0 1 4 4v2a0 0 0 0 1 0 0h-24a0 0 0 0 1 0 0v-2a4 4 0 0 1 4-4z" fill="#656b76" transform="matrix(.866 .5 -.5 .866 30.797 -15.059)"/><path d="m30.999 52.268h20v4h-20z" fill="#e53935" transform="matrix(.866 .5 -.5 .866 32.627 -13.229)"/><path d="m38.999 43.608h14v4h-14z" fill="#e9f1f2" transform="matrix(.866 .5 -.5 .866 28.967 -16.889)"/><path d="m60.061 35.251a7 7 0 0 0 -2.665-9.62 7.087 7.087 0 0 0 -9.326 2.4 6.956 6.956 0 0 0 -1.07 3.625 16.227 16.227 0 0 1 -3.133 9.784l-.333.436 6.928 4 .2-.488a14.407 14.407 0 0 1 6.538-7.417 6.942 6.942 0 0 0 2.861-2.72z" fill="#656b76"/><path d="m60.06 35.25a6.918 6.918 0 0 1 -2.86 2.72 14.389 14.389 0 0 0 -6.53 7.42l-.21.49-6.93-4 .34-.44a14.433 14.433 0 0 0 1.95-3.46 15.976 15.976 0 0 0 14.04-10.06 7.021 7.021 0 0 1 .2 7.33z" fill="#464a51"/><path d="m53.06 47.38-2 3.46-12.12-7 .62-1.07 7.04 4.07a3.987 3.987 0 0 0 4.67-.5z" fill="#d0d8da"/><path d="m53.39 56.8-1 1.74-20.78-12 1-1.74a3.744 3.744 0 0 1 .59-.77l12.99 7.51a5.989 5.989 0 0 0 2.99.8 6.084 6.084 0 0 0 3.03-.81 3.98 3.98 0 0 1 1.18 5.27z" fill="#464a51"/><path d="m50.66 57.54-2 3.46-2.29-1.32a2.981 2.981 0 0 0 -1.31-3.64l-12.47-7.2.75-1.3z" fill="#c62828"/><path d="m12 19h12v8h-12z" fill="#ffea00"/><path d="m15.69 27h-3.69v-8h3v4a11.8 11.8 0 0 0 .69 4z" fill="#ffd000"/><path d="m24 19h8v8h-8z" fill="#e9f1f2"/><path d="m16 23h4v4h-4z" fill="#e9f1f2"/><path d="m12 11h12v4h-12z" fill="#e9f1f2"/><path d="m12 15h12v4h-12z" fill="#e9f1f2"/><path d="m20 7h4v4h-4z" fill="#ffea00"/><path d="m16 7h4v4h-4z" fill="#ffea00"/><path d="m8 15h4v12h-4z" fill="#ffb700"/><path d="m12 15v12h-4v-2a2.006 2.006 0 0 0 2-2v-8z" fill="#ffa200"/><path d="m24 15h-12v-4h7z" fill="#d0d8da"/><path d="m24 19h-12v-4h7z" fill="#d0d8da"/><path d="m12 11h3v4h-3z" fill="#93999a"/><path d="m12 15h3v4h-3z" fill="#93999a"/><path d="m24 10v1h-4v-4h1a3 3 0 0 0 3 3z" fill="#ffd000"/><path d="m20 10v1h-4v-4h1a3 3 0 0 0 3 3z" fill="#ffd000"/><path d="m30 23h-6v-4h2z" fill="#d0d8da"/><path d="m30 27h-6v-4h2z" fill="#d0d8da"/><path d="m16 23v4h4v-4zm3 3-2-2h2z" fill="#d0d8da"/></g></g></svg>